<svg xmlns="http://www.w3.org/2000/svg" viewBox="0 0 500 500"><g id="freepik--background-complete--inject-62"><path d="M90.6,344.51c0-1.92-.11-3.82-.13-5.7l.28.28c-4.54.05-9.09.16-13.63.17l-13.63.06.51-.51,0,11.52-.46-.46c2.24,0,4.48,0,6.74.06L77,350l13.75.29Zm-13.36,6.1-6.86.12c-2.29,0-4.59,0-6.89.06H63v-.46L63,338.81v-.52h.52l13.63.07c4.54,0,9.09.11,13.63.17H91v.28c0,1.95-.09,3.9-.13,5.82l-.15,5.7Z" style="fill:#ebebeb"></path><path d="M75.4,359c-.05-1.92-.12-3.81-.14-5.7l.28.28c-4.54.06-9.08.17-13.63.17l-13.63.07.52-.52-.06,11.52-.46-.46c2.25,0,4.49,0,6.74.06l6.77.12,13.75.28ZM62,365.14l-6.86.11c-2.29.05-4.59,0-6.89.06h-.46v-.47l0-11.52v-.51h.52l13.63.06c4.55,0,9.09.12,13.63.17h.29v.27c0,2-.09,3.9-.13,5.82l-.15,5.7Z" style="fill:#ebebeb"></path><path d="M105.81,359c0-1.92-.12-3.81-.14-5.7l.29.28c-4.55.06-9.09.17-13.63.17l-13.63.07.51-.52-.06,11.52-.45-.46c2.24,0,4.48,0,6.73.06l6.78.12,13.75.28Zm-13.37,6.11-6.85.11c-2.29.05-4.6,0-6.89.06h-.46v-.47l-.06-11.52v-.51h.52l13.63.06c4.54,0,9.08.12,13.63.17h.28v.27c0,2-.09,3.9-.14,5.82l-.14,5.7Z" style="fill:#ebebeb"></path><path d="M451.81,359c-.05-1.92-.12-3.81-.14-5.7l.28.28c-4.54.06-9.09.17-13.63.17l-13.63.07.51-.52-.05,11.52-.46-.46c2.25,0,4.49,0,6.74.06l6.77.12,13.75.28Zm-13.37,6.11-6.86.11c-2.29.05-4.59,0-6.89.06h-.46v-.47l-.05-11.52v-.51h.52l13.63.06c4.54,0,9.09.12,13.63.17h.29v.27c0,2-.09,3.9-.13,5.82l-.15,5.7Z" style="fill:#ebebeb"></path><path d="M436.6,55c-.05-1.92-.12-3.81-.14-5.7l.28.28c-4.54.05-9.08.16-13.63.17l-13.63.06.52-.51-.06,11.52-.46-.46c2.25,0,4.49,0,6.74.06l6.78.11,13.74.29Zm-13.37,6.11-6.85.11c-2.3.05-4.6,0-6.9.06H409v-.46L409,49.34v-.52h.51l13.63.06c4.55,0,9.09.12,13.63.17H437v.28c0,1.95-.09,3.9-.14,5.82l-.15,5.7Z" style="fill:#ebebeb"></path><path d="M451.81,69.56c-.05-1.91-.12-3.81-.14-5.69l.28.28c-4.54,0-9.09.16-13.63.16l-13.63.07.51-.51-.05,11.51-.46-.45c2.25,0,4.49,0,6.74,0l6.77.12,13.75.28Zm-13.37,6.11-6.86.12c-2.29,0-4.59,0-6.89,0h-.46v-.47l-.05-11.51v-.52h.52l13.63.07c4.54,0,9.09.11,13.63.16h.29v.28c0,1.95-.09,3.89-.13,5.82L452,75.38Z" style="fill:#ebebeb"></path><path d="M75.4,55.05c-.05-1.92-.12-3.81-.14-5.7l.28.28c-4.54.06-9.08.17-13.63.17l-13.63.07.52-.52-.06,11.52-.46-.46c2.25,0,4.49,0,6.74.06l6.77.11,13.75.29ZM62,61.16l-6.86.11c-2.29,0-4.59,0-6.89.06h-.46v-.46l0-11.52v-.51h.52l13.63.06c4.55,0,9.09.12,13.63.17h.29v.28c0,2-.09,3.9-.13,5.82l-.15,5.7Z" style="fill:#ebebeb"></path><path d="M118.34,121.34c0,1.92.12,3.81.14,5.7l-.28-.28c4.54-.05,9.08-.16,13.63-.17l13.63-.06-.52.51.06-11.52.46.46c-2.25,0-4.49,0-6.74-.06l-6.77-.11-13.75-.29Zm13.37-6.11,6.86-.11c2.29-.05,4.59,0,6.89-.06h.45v.46L146,127v.52h-.51l-13.63-.06c-4.55,0-9.09-.12-13.63-.17h-.29V127c0-2,.08-3.9.13-5.82l.15-5.7Z" style="fill:#ebebeb"></path><path d="M133.55,106.82c0,1.91.12,3.81.14,5.69l-.29-.28c4.55,0,9.09-.16,13.63-.16l13.63-.07-.51.51.06-11.51.45.45c-2.24,0-4.48,0-6.73,0l-6.78-.12L133.4,101Zm13.37-6.11,6.85-.12c2.29,0,4.6,0,6.89,0h.46V101l.06,11.51V113h-.52L147,113c-4.54,0-9.08-.11-13.63-.16h-.28v-.28c0-2,.09-3.89.14-5.82l.14-5.69Z" style="fill:#ebebeb"></path><path d="M80.31,213.22c0,1.92.12,3.81.14,5.7l-.28-.28c4.54-.06,9.08-.17,13.63-.17l13.63-.07-.52.52L107,207.4l.46.46c-2.25,0-4.49,0-6.74-.06l-6.77-.11-13.75-.29Zm13.37-6.11,6.86-.11c2.29-.05,4.59,0,6.89-.06h.46v.46l0,11.52v.51h-.52l-13.63-.06c-4.55,0-9.09-.12-13.63-.17h-.29v-.28c0-2,.09-3.9.13-5.82l.15-5.7Z" style="fill:#ebebeb"></path><path d="M50.2,244.11a2.92,2.92,0,0,1-2,3.64l1.07,3.56a2.92,2.92,0,0,1,1.69,5.6l1.07,3.57a2.92,2.92,0,0,1,1.69,5.6l1.07,3.57a2.92,2.92,0,0,1,1.68,5.6l1.07,3.56a2.93,2.93,0,0,1,1.69,5.61L60.34,288a2.92,2.92,0,0,1,1.68,5.6l.94,3.11,3.29-1a2.92,2.92,0,1,1,5.6-1.68l3.56-1.08a2.92,2.92,0,1,1,5.6-1.68l3.56-1.07a2.93,2.93,0,0,1,5.61-1.69l3.56-1.07a2.92,2.92,0,1,1,5.6-1.68l3.57-1.08a2.92,2.92,0,0,1,5.6-1.68l3.29-1-.94-3.11a2.92,2.92,0,1,1-1.68-5.6l-1.07-3.56a2.93,2.93,0,0,1-1.69-5.61l-1.07-3.56a2.92,2.92,0,1,1-1.68-5.6l-1.07-3.56a2.92,2.92,0,1,1-1.69-5.6l-1.07-3.57a2.92,2.92,0,1,1-1.69-5.6l-1.07-3.56a2.92,2.92,0,1,1-1.68-5.6l-1-3.22-3.29,1a2.92,2.92,0,0,1-5.59,1.68L82,228a2.92,2.92,0,0,1-5.59,1.68l-3.58,1.08a2.91,2.91,0,0,1-5.58,1.68l-3.58,1.08a2.92,2.92,0,0,1-5.59,1.68l-3.58,1.07a2.91,2.91,0,0,1-5.58,1.68l-3.3,1,1,3.22A2.93,2.93,0,0,1,50.2,244.11Z" style="fill:#ebebeb"></path><rect x="62.53" y="240.65" width="32.33" height="39.63" transform="translate(229.06 487.24) rotate(163.26)" style="fill:#dbdbdb"></rect><rect x="374.07" y="111.3" width="58.83" height="92.77" transform="translate(157.11 514) rotate(-76.68)" style="fill:#ebebeb"></rect><path d="M455.4,139.74c-4.47,2.62-9,5.08-13.46,7.65s-9,5-13.52,7.4q-7.07,3.81-14.14,7.54l-.43.25-12.53,6.56-.62.3-.4-.54q-4.14-5.75-8.25-11.5c-.1-.12-.19-.26-.29-.4q-4.67-6.51-9.27-13.11c-2.93-4.18-5.85-8.41-8.75-12.65s-5.79-8.52-8.61-12.87c3.17,3.91,6.24,7.95,9.35,11.92s6.17,8,9.21,12.12q5.1,6.75,10.15,13.66s0,0,0,0l7.56,10.31c3.79-2,7.59-3.91,11.37-5.82,0,0,0,0,0,0C417.9,158,423,155.4,428,152.88c4.54-2.25,9.09-4.49,13.65-6.68S450.82,141.81,455.4,139.74Z" style="fill:#fff"></path><path d="M393.67,157.41c-.05,0-.08.05-.13.07l-1.71.86c-2.72,1.38-5.47,2.66-8.25,3.88-3.39,1.51-6.83,2.92-10.28,4.31s-6.92,2.67-10.43,3.9-7,2.41-10.64,3.41c3.31-1.75,6.68-3.32,10.07-4.82s6.85-2.92,10.29-4.31S379.52,162,383,160.8c2.8-1,5.63-1.93,8.49-2.77l2-.58Z" style="fill:#fff"></path><path d="M442.07,195.1c-2.77-2.5-5.41-5.14-8-7.81s-5.09-5.42-7.58-8.17-4.91-5.58-7.26-8.46c-1.93-2.33-3.82-4.7-5.61-7.14-.4-.52-.77-1-1.15-1.56,0,0-.05-.09-.09-.12l.12.1,1.53,1.42c2.18,2,4.27,4.14,6.34,6.28,2.59,2.67,5.09,5.41,7.57,8.18s4.91,5.58,7.26,8.46S439.9,192.06,442.07,195.1Z" style="fill:#fff"></path><rect x="312.97" y="49.35" width="80.7" height="51.18" style="fill:#ebebeb"></rect><path d="M393.67,49.35c-3.26,3.12-6.58,6.1-9.87,9.17s-6.62,6-10,9c-3.48,3.11-7,6.17-10.46,9.22l-.31.3-9.3,8.07-.46.38-.45-.38L343.58,77l-.33-.29c-3.5-3-7-6.11-10.47-9.23-3.32-3-6.64-6-9.95-9s-6.6-6.05-9.86-9.17c3.46,2.67,6.87,5.48,10.3,8.22S330.1,63.14,333.5,66q5.67,4.69,11.33,9.53l0,0c2.83,2.39,5.65,4.8,8.47,7.2,2.82-2.4,5.64-4.83,8.46-7.2,0,0,0,0,0,0q5.65-4.8,11.33-9.53,5.08-4.23,10.22-8.39C386.8,54.83,390.2,52,393.67,49.35Z" style="fill:#fff"></path><path d="M345,76.68s-.06.06-.1.08c-.42.37-.85.73-1.27,1.08-2,1.71-4.1,3.35-6.2,4.93-2.57,2-5.2,3.84-7.85,5.71s-5.32,3.65-8,5.39-5.48,3.46-8.33,5c2.45-2.14,5-4.14,7.56-6.09s5.21-3.85,7.84-5.71,5.34-3.66,8.06-5.41c2.17-1.39,4.38-2.76,6.63-4.05.52-.3,1.05-.59,1.58-.88Z" style="fill:#fff"></path><path d="M393.48,98.89c-2.85-1.56-5.62-3.27-8.33-5s-5.39-3.56-8.06-5.39-5.27-3.74-7.84-5.71c-2.1-1.58-4.17-3.21-6.18-4.92-.44-.36-.86-.72-1.29-1.09l-.09-.08a.45.45,0,0,0,.12.06l1.57.89c2.26,1.29,4.45,2.66,6.63,4.05,2.73,1.75,5.4,3.57,8.05,5.41s5.27,3.74,7.84,5.71S391,96.75,393.48,98.89Z" style="fill:#fff"></path><rect x="81.95" width="0.84" height="79.34" style="fill:#c7c7c7"></rect><polygon points="117.13 112.85 114.33 119 50.39 119 47.6 112.85 74.83 94.01 89.91 94.01 117.13 112.85" style="fill:#ebebeb"></polygon><polygon points="91.8 75.86 89.91 94.01 74.83 94.01 72.94 75.86 91.8 75.86" style="fill:#dbdbdb"></polygon><polygon points="117.13 112.86 114.33 119 50.39 119 47.6 112.86 117.13 112.86" style="fill:#dbdbdb"></polygon><rect x="156.59" width="0.84" height="59.51" style="fill:#c7c7c7"></rect><polygon points="191.77 93.02 188.97 99.17 125.03 99.17 122.25 93.02 149.47 74.18 164.55 74.18 191.77 93.02" style="fill:#ebebeb"></polygon><polygon points="166.44 56.03 164.55 74.18 149.47 74.18 147.58 56.03 166.44 56.03" style="fill:#dbdbdb"></polygon><polygon points="191.77 93.03 188.97 99.17 125.03 99.17 122.24 93.03 191.77 93.03" style="fill:#dbdbdb"></polygon></g><g id="freepik--Plant--inject-62"><path d="M80.18,312.54a37.73,37.73,0,0,1-.74,14.51,39.51,39.51,0,0,1-2.22,6.41c-1.15,2.65-2.36,5.24-2.07,8.15.28.18-.68.15-.71-.13-7.76-4.42-17.71-5.23-23.68-12.45a24.74,24.74,0,0,1-4.93-12.09,36.61,36.61,0,0,1,.28-14.6c1-3.94,3.33-7.73,7-9.66S62,290.86,66,292.1C74.64,294.8,79,304.15,80.18,312.54Z" style="fill:#90CAF9"></path><path d="M84.16,370q-1.59-5.3-3.2-10.58c-2.13-6.9-4.35-13.77-6.79-20.56q-2.2-6.09-4.65-12.08a73.48,73.48,0,0,1,.93-7.5c.65-3,1.59-5.91,2.47-8.86,0-.18-.24-.27-.32-.1-1.74,4.05-4,9.24-4.07,14.05q-2.84-6.78-6.1-13.35a57.51,57.51,0,0,1,.34-11.12.13.13,0,0,0-.26-.05,39.7,39.7,0,0,0-.76,9.81c-1.67-3.29-3.42-6.54-5.29-9.74-.17-.29-.57,0-.42.29q4.37,8.42,8.16,17.15a37.13,37.13,0,0,0-12.17-7c-.19-.07-.34.21-.14.29a44.24,44.24,0,0,1,13.16,8.71q2.73,6.38,5.21,12.86c-4.85-4.76-11.5-7.89-17.92-9.57-.22,0-.28.28-.07.34,7.44,2.24,13.22,6.46,18.87,11.52.66,1.75,1.3,3.5,1.94,5.26q3.58,10,6.84,20.06,1.58,4.85,3.08,9.69c1.09,3.48,1.94,7.15,3.35,10.51.13.32.71.25.64-.13A99.82,99.82,0,0,0,84.16,370Z" style="fill:#263238"></path><path d="M71.29,305.75a19.13,19.13,0,0,0-2.79,7c0,.06.08.1.11,0a59.37,59.37,0,0,1,3-6.83C71.75,305.69,71.42,305.55,71.29,305.75Z" style="fill:#263238"></path><path d="M57.45,321.92a20.27,20.27,0,0,0-7-2.35c-.07,0-.11.09,0,.11,1.12.47,2.29.79,3.43,1.23s2.24,1,3.39,1.37A.2.2,0,0,0,57.45,321.92Z" style="fill:#263238"></path><path d="M53.55,302.47a13.37,13.37,0,0,0-2.24-1.38.12.12,0,0,0-.13.19,13.52,13.52,0,0,0,2.21,1.44C53.53,302.8,53.69,302.56,53.55,302.47Z" style="fill:#263238"></path><path d="M106.34,338.9c-5.59,1.65-11.21,3.19-16.8,4.83-.48.14-9.93-18-6.51-27.28a30.41,30.41,0,0,1,19-18c4-1.35,8.89-2.49,13.11-1.56,3.75.83,6.4,3.89,7.61,7.42,1.66,4.79,1.11,10.5.21,15.4a26.91,26.91,0,0,1-5.5,12.56C114.48,335.77,110.69,337.6,106.34,338.9Z" style="fill:#90CAF9"></path><path d="M106.34,338.9c-5.59,1.65-11.21,3.19-16.8,4.83-.48.14-9.93-18-6.51-27.28a30.41,30.41,0,0,1,19-18c4-1.35,8.89-2.49,13.11-1.56,3.75.83,6.4,3.89,7.61,7.42,1.66,4.79,1.11,10.5.21,15.4a26.91,26.91,0,0,1-5.5,12.56C114.48,335.77,110.69,337.6,106.34,338.9Z" style="opacity:0.1"></path><path d="M114.44,321.69a73.13,73.13,0,0,1-11,4.31,47.06,47.06,0,0,0-7.31,2.65c2.36-5.26,5-10.41,7.69-15.51A25.14,25.14,0,0,0,114,307.91a.16.16,0,0,0-.2-.24,50.27,50.27,0,0,1-9.56,4.79q1.13-2.06,2.26-4.11c.22-.38-.31-.76-.56-.39a117.8,117.8,0,0,0-8,13.33,61.46,61.46,0,0,1-.57-12.21.08.08,0,0,0-.16,0,40.63,40.63,0,0,0,.14,13.43c-2,3.91-3.75,7.92-5.35,12-.64-2.44-1.47-4.84-2-7.3a33.31,33.31,0,0,1-.8-10.76c0-.1-.15-.11-.17,0a38,38,0,0,0,2.35,19.75c-.94,2.44-1.83,4.89-2.64,7.35a146.1,146.1,0,0,0-7.42,38.77.24.24,0,0,0,.47,0A192.23,192.23,0,0,1,90.14,344c1.62-4.87,3.49-9.6,5.53-14.24,3.3-1,6.59-2.3,9.83-3.43a30.57,30.57,0,0,0,9.06-4.44C114.67,321.8,114.55,321.63,114.44,321.69Z" style="fill:#263238"></path><path d="M119.65,316.43c-3.42,1.22-6.66,2.92-10.07,4.15-.16.06-.07.31.09.28,3.61-.75,7.2-1.86,10.11-4.23C119.89,316.54,119.77,316.39,119.65,316.43Z" style="fill:#263238"></path><path d="M91.74,309.06c0-.18-.22-.29-.28-.1-.93,3.15-1.58,6.49-.67,9.71a.12.12,0,0,0,.24,0C91.2,315.41,91,312.26,91.74,309.06Z" style="fill:#263238"></path><path d="M105.86,301.78a8.4,8.4,0,0,0-1.48,5.36c0,.12.2.19.23.05.42-1.81,1.11-3.45,1.67-5.2A.24.24,0,0,0,105.86,301.78Z" style="fill:#263238"></path><path d="M39.86,346.88c1.64,5.2,5.54,12.39,11.7,12.44,4,0,8-.43,12-.49,4.29-.06,8.59-.05,12.87.2.35,0-.52-12.85-10.83-19.11-2.88-1.76-6.42-2.31-9.69-3a44.26,44.26,0,0,0-11.46-1.19c-2.37.09-4.34.59-5.18,3S39.08,344.41,39.86,346.88Z" style="fill:#90CAF9"></path><path d="M44.3,340.37c2.51.65,5,1.39,7.55,2.19a24.91,24.91,0,0,0-2.08-2,40.54,40.54,0,0,0-3.43-2.4c-.09-.07,0-.25.09-.2a14.06,14.06,0,0,1,6.08,4.83c3.13,1,6.24,2.13,9.23,3.36a34.79,34.79,0,0,1,5.9,3.11,23.23,23.23,0,0,0-2.13-3.72c-1.37-1.77-3.22-2.76-5-4a.16.16,0,0,1,.17-.28,14.71,14.71,0,0,1,8,8.72,34.74,34.74,0,0,1,5.85,5.31c6.82,7.75,12.19,18.06,12.21,28.58,0,.25-.4.32-.45.06a58.3,58.3,0,0,0-13-27.94c-.49-.57-1-1.11-1.5-1.64a46.23,46.23,0,0,0-5.64-.42c-2.19,0-4.37.33-6.56.5-3.59.3-7.57.34-10.82-1.47-.14-.08-.05-.33.11-.27,7.24,2.63,14.83-.71,22.09.86a33.81,33.81,0,0,0-10.7-6.9l-.67-.27c-4.64.56-9.55,1.77-14.07.26a.11.11,0,0,1,.06-.21c4.37,1.09,8.56-.28,12.87-.5-4.69-1.83-9.48-3.29-14.19-5.1C43.88,340.63,43.87,340.26,44.3,340.37Z" style="fill:#263238"></path><path d="M42.25,345a63.86,63.86,0,0,0,6.76.51c.05,0,.07.08,0,.09a14,14,0,0,1-6.83-.43C42.09,345.09,42.14,344.93,42.25,345Z" style="fill:#263238"></path><path d="M57.52,340.49a11,11,0,0,1,3.35,2.32c.12.11,0,.32-.17.22-.57-.41-1.15-.8-1.74-1.18a16,16,0,0,1-1.63-1A.2.2,0,0,1,57.52,340.49Z" style="fill:#263238"></path><path d="M93.93,357.23c-.08.17.17.33.26.15h0a.21.21,0,0,0,.16.1,104.11,104.11,0,0,0,12.6,2.2c3.41.3,7.34.49,10.32-1.49,4-2.68,6.71-9.84,4.52-14.4-2.59-5.41-10.38-2.47-14.29-.55A28.74,28.74,0,0,0,93.93,357.23Z" style="fill:#90CAF9"></path><path d="M93.93,357.23c-.08.17.17.33.26.15h0a.21.21,0,0,0,.16.1,104.11,104.11,0,0,0,12.6,2.2c3.41.3,7.34.49,10.32-1.49,4-2.68,6.71-9.84,4.52-14.4-2.59-5.41-10.38-2.47-14.29-.55A28.74,28.74,0,0,0,93.93,357.23Z" style="opacity:0.1"></path><path d="M90.9,359.73A40.6,40.6,0,0,1,98.43,354a25.67,25.67,0,0,1,7.62-7.77c.15-.1.28.13.14.24a34.87,34.87,0,0,0-6.43,6.76,71.09,71.09,0,0,1,9.44-4.29,12.47,12.47,0,0,1,5.07-5.08s.09,0,0,.07a20.84,20.84,0,0,0-4.58,4.8c1.92-.72,3.86-1.38,5.79-2,.18-.06.24.2.08.27-3.45,1.34-7,2.76-10.38,4.4a39.86,39.86,0,0,0,12.57,0c.11,0,.16.15,0,.18a24.77,24.77,0,0,1-13.34.2,62.16,62.16,0,0,0-6.33,3.55,15.63,15.63,0,0,1,5.12.41,38.3,38.3,0,0,0,9,1c.12,0,.15.18,0,.2-5.21.9-10.14-1.47-15.31-.85a38.16,38.16,0,0,0-13.23,15.47c-2.17,4.42-3.35,9.11-5.11,13.69a.17.17,0,0,1-.32-.09C79.85,376.1,84.33,366.16,90.9,359.73Z" style="fill:#263238"></path><path d="M106.63,347.36a5.91,5.91,0,0,1,1.33-1.62,5.22,5.22,0,0,1,1.54-1.15s.08.05,0,.09c-.43.48-1,.84-1.48,1.3s-.85,1-1.32,1.48A.08.08,0,0,1,106.63,347.36Z" style="fill:#263238"></path><path d="M115.22,350.16c.78-.19,1.6-.18,2.38-.34a22.74,22.74,0,0,0,2.31-.69.09.09,0,0,1,.07.17,7.68,7.68,0,0,1-4.76,1.1C115.1,350.38,115.11,350.19,115.22,350.16Z" style="fill:#263238"></path><polygon points="69.42 374.01 70.11 381.78 72.43 408.01 92.98 408.01 95.88 381.78 96.74 374.01 69.42 374.01" style="fill:#455a64"></polygon><polygon points="69.42 374.01 70.11 381.78 95.88 381.78 96.74 374.01 69.42 374.01" style="fill:#263238"></polygon><rect x="67.39" y="371.89" width="31.38" height="6.3" transform="translate(166.16 750.08) rotate(180)" style="fill:#455a64"></rect></g><g id="freepik--Shadow--inject-62"><ellipse cx="260.67" cy="455.93" rx="100.46" ry="8.03" style="fill:#ebebeb"></ellipse></g><g id="freepik--Envelope--inject-62"><rect x="152.24" y="215.75" width="303.17" height="192.26" style="fill:#90CAF9"></rect><g style="opacity:0.1"><rect x="152.24" y="215.75" width="303.17" height="192.26"></rect></g><path d="M152.24,215.75H455.4v41.32L331.73,337.51a51.15,51.15,0,0,1-55.78,0L152.24,257.07Z" style="fill:#90CAF9"></path><path d="M152.24,215.75H455.4v41.32L331.73,337.51a51.15,51.15,0,0,1-55.78,0L152.24,257.07Z" style="opacity:0.2"></path><g style="opacity:0.1"><path d="M418.34,382.7c12.34,8.47,24.82,16.71,37.06,25.31-13-7.37-25.81-15.11-38.7-22.67S391,370,378.28,362.12q-19.84-12.09-39.67-24.5l-1.69,1.11a79.23,79.23,0,0,1-10,5.89A53.92,53.92,0,0,1,292,348.45a60.93,60.93,0,0,1-11.25-3.84,78.53,78.53,0,0,1-10-5.89l-1.66-1.09Q249.26,350,229.36,362.17,210.24,373.84,191,385.34c-12.93,7.56-25.72,15.3-38.74,22.67,12.24-8.6,24.72-16.84,37.06-25.31q18.64-12.42,37.42-24.77,18.41-12,36.87-23.89l-2.1-1.41-18.4-12.3-9.19-6.16-9.15-6.23c-24.42-16.58-48.68-33.39-72.51-50.87,25.64,14.69,50.85,30,75.91,45.64l9.4,5.83,9.36,5.91,18.71,11.83c1.68,1.05,3.34,2.12,5,3.19l4.31,2.78c.45.3.9.59,1.34.86a62.46,62.46,0,0,0,7.74,4.4,52.23,52.23,0,0,0,9.67,3.21,53.1,53.1,0,0,0,10.13,1.06,47.27,47.27,0,0,0,19.82-4.25,64,64,0,0,0,7.75-4.41c.44-.27.88-.56,1.33-.85l4.26-2.75c1.68-1.08,3.36-2.16,5.06-3.22,12.48-7.86,24.89-15.84,37.46-23.57,25.06-15.6,50.27-31,75.9-45.66-23.83,17.47-48.09,34.29-72.51,50.87-12.16,8.35-24.49,16.47-36.73,24.69-.7.47-1.4.94-2.11,1.4q18.52,11.88,36.92,24C393.44,366.13,405.91,374.42,418.34,382.7Z"></path></g><polygon points="401.58 408.01 98.42 408.01 98.42 151.56 249.98 55.31 401.58 151.56 401.58 408.01" style="fill:#90CAF9"></polygon><polygon points="385.84 407.54 114.16 407.54 114.16 159.88 249.98 73.63 385.84 159.88 385.84 407.54" style="opacity:0.1"></polygon><rect x="108.53" y="158.38" width="282.95" height="249.01" style="fill:#ebebeb"></rect><rect x="151.77" y="217.19" width="143.68" height="8.06" transform="translate(447.22 442.43) rotate(180)" style="fill:#dbdbdb"></rect><rect x="306.81" y="190.04" width="44.18" height="8.06" transform="translate(657.79 388.14) rotate(180)" style="fill:#dbdbdb"></rect><rect x="151.77" y="237.53" width="135.96" height="8.06" transform="translate(439.51 483.12) rotate(180)" style="fill:#dbdbdb"></rect><rect x="151.77" y="278.22" width="199.21" height="8.06" transform="translate(502.75 564.51) rotate(180)" style="fill:#dbdbdb"></rect><rect x="151.77" y="298.57" width="199.21" height="8.06" transform="translate(502.75 605.2) rotate(180)" style="fill:#dbdbdb"></rect><rect x="151.77" y="318.91" width="199.21" height="8.06" transform="translate(502.75 645.89) rotate(180)" style="fill:#dbdbdb"></rect><rect x="151.77" y="339.26" width="199.21" height="8.06" transform="translate(502.75 686.58) rotate(180)" style="fill:#dbdbdb"></rect><path d="M401.58,215.75V408H98.42V215.75c13,7.38,25.81,15.12,38.7,22.68s25.67,15.38,38.42,23.21q21.3,13,42.57,26.32c.14-.09.32-.18.45-.27-.13.09-.22.22-.36.31q15.92,9.92,31.82,19.9c10.57-6.65,21.17-13.34,31.78-19.9-.14-.09-.23-.22-.36-.31a1.87,1.87,0,0,0,.45.22q21.24-13.25,42.57-26.31,19.13-11.69,38.38-23.17C375.77,230.87,388.56,223.13,401.58,215.75Z" style="fill:#90CAF9"></path><g style="opacity:0.1"><path d="M401.58,215.75c-12.24,8.61-24.72,16.85-37.06,25.32-12.43,8.28-24.9,16.57-37.42,24.76q-19.61,12.84-39.29,25.45c-.41.28-.77.55-1.18.82q-17.42,11.13-34.92,22.26L250,315.41l-1.69-1.05q-17.47-11.13-34.87-22.3c-.41-.23-.82-.5-1.23-.78q-19.74-12.63-39.34-25.49c-12.47-8.15-24.94-16.44-37.37-24.72-12.34-8.47-24.82-16.71-37.06-25.32,13,7.38,25.81,15.12,38.7,22.68s25.67,15.38,38.42,23.21q21.3,13,42.57,26.32s0,0,.09,0q15.92,9.92,31.82,19.9c10.57-6.65,21.17-13.34,31.78-19.9.05-.09.05-.09.09-.09q21.24-13.25,42.57-26.31,19.13-11.69,38.38-23.17C375.77,230.87,388.56,223.13,401.58,215.75Z"></path><path d="M218.56,287.69c-.13.09-.22.22-.36.31-1.59,1.37-3.19,2.74-4.78,4.06-7.6,6.42-15.39,12.56-23.31,18.53C180.46,318,170.58,325,160.65,332s-20,13.7-30.23,20.26-20.58,13-31.27,18.85c9.19-8.06,18.75-15.57,28.4-22.9S147.13,333.8,157,326.79s20-13.75,30.28-20.3c8.15-5.24,16.43-10.38,24.9-15.21,2-1.14,3.91-2.23,5.92-3.32C218.25,287.87,218.43,287.78,218.56,287.69Z"></path><path d="M400.85,371.14c-10.69-5.88-21.07-12.3-31.27-18.85S349.32,338.9,339.3,332,319.5,318,309.85,310.59c-7.88-6-15.67-12.07-23.22-18.49-1.64-1.36-3.24-2.73-4.83-4.1-.14-.09-.23-.22-.36-.31a1.87,1.87,0,0,0,.45.22c2,1.14,4,2.23,5.92,3.37,8.47,4.83,16.71,10,24.9,15.21C323,313,333,319.87,342.94,326.79s19.81,14.07,29.46,21.45S391.66,363.08,400.85,371.14Z"></path></g><path d="M401.58,408H98.42V366.7l123.67-80.44a51.17,51.17,0,0,1,55.78,0L401.58,366.7Z" style="fill:#90CAF9"></path></g><g id="freepik--Floor--inject-62"><polygon points="38.37 408.07 91.28 407.83 144.18 407.74 250 407.57 355.82 407.74 408.73 407.83 461.63 408.07 408.73 408.32 355.82 408.4 250 408.57 144.18 408.4 91.28 408.31 38.37 408.07" style="fill:#263238"></polygon></g></svg>